<svg id="visual" viewBox="0 0 900 600" width="900" height="600" xmlns="http://www.w3.org/2000/svg" xmlns:xlink="http://www.w3.org/1999/xlink" version="1.1"><path d="M0 460L21.5 458.7C43 457.3 86 454.7 128.8 463C171.7 471.3 214.3 490.7 257.2 498.2C300 505.7 343 501.3 385.8 499C428.7 496.7 471.3 496.3 514.2 480.5C557 464.7 600 433.3 642.8 436C685.7 438.7 728.3 475.3 771.2 471.8C814 468.3 857 424.7 878.5 402.8L900 381L900 601L878.5 601C857 601 814 601 771.2 601C728.3 601 685.7 601 642.8 601C600 601 557 601 514.2 601C471.3 601 428.7 601 385.8 601C343 601 300 601 257.2 601C214.3 601 171.7 601 128.8 601C86 601 43 601 21.5 601L0 601Z" fill="#fed049" stroke-linecap="round" stroke-linejoin="miter"></path></svg>